STARTFONT 2.1
FONT -sun-timmons-medium-i-normal--20-200-75-75-p-104-adobe-fontspecific
SIZE 20 75 75
FONTBOUNDINGBOX 27 23 -5 -4

STARTPROPERTIES 28
FOUNDRY "sun"
FAMILY_NAME "timmons"
WEIGHT_NAME "medium"
SLANT "i"
SETWIDTH_NAME "normal"
ADD_STYLE_NAME ""
PIXEL_SIZE 21
POINT_SIZE 200
RESOLUTION_X 75
RESOLUTION_Y 75
SPACING "p"
AVERAGE_WIDTH 104
CHARSET_REGISTRY "adobe"
CHARSET_ENCODING "fontspecific"
COPYRIGHT "© 1999 Sun Microsystems, Inc."
RAW_PIXELSIZE 1000
RAW_POINTSIZE 964
RAW_ASCENT 924
RAW_DESCENT 196
RAW_AVERAGE_WIDTH 5015
FACE_NAME "TimmonsItalicnsB5"
_XMBDFED_INFO "Edited with xmbdfed 2.4."
WEIGHT 10
X_HEIGHT -2
QUAD_WIDTH 11
DEFAULT_CHAR 4
FONT_DESCENT 4
FONT_ASCENT 19
ENDPROPERTIES

CHARS 214

STARTCHAR char32
ENCODING 32
SWIDTH 21 0
DWIDTH 5 0
BBX 0 0 0 0
BITMAP
ENDCHAR

STARTCHAR char33
ENCODING 33
SWIDTH 25 0
DWIDTH 6 0
BBX 5 15 2 0
BITMAP
08
18
18
10
30
20
20
20
20
20
40
00
00
C0
C0
ENDCHAR

STARTCHAR char34
ENCODING 34
SWIDTH 30 0
DWIDTH 7 0
BBX 6 5 3 10
BITMAP
6C
6C
24
48
90
ENDCHAR

STARTCHAR char35
ENCODING 35
SWIDTH 43 0
DWIDTH 10 0
BBX 10 15 0 0
BITMAP
1980
1100
1100
1100
FFC0
3300
3300
3300
2200
FF80
FF80
2200
6600
6600
6600
ENDCHAR

STARTCHAR char36
ENCODING 36
SWIDTH 43 0
DWIDTH 10 0
BBX 11 19 0 -2
BITMAP
0100
0100
0F00
19C0
3160
3220
3220
3A00
1E00
0E00
0700
0700
4980
4980
8980
CB00
3E00
1000
1000
ENDCHAR

STARTCHAR char37
ENCODING 37
SWIDTH 20 0
DWIDTH 15 0
BBX 14 15 1 0
BITMAP
1820
2C40
4C40
4C80
CC80
CD00
C938
CACC
D2CC
658C
058C
098C
0998
1198
10F0
ENDCHAR

STARTCHAR char38
ENCODING 38
SWIDTH 12 0
DWIDTH 13 0
BBX 13 15 0 0
BITMAP
01C0
0360
0660
0660
06C0
0780
0E00
3278
6220
C360
C340
C380
C180
63C0
3C70
ENDCHAR

STARTCHAR char39
ENCODING 39
SWIDTH 21 0
DWIDTH 5 0
BBX 4 5 3 10
BITMAP
30
40
80
C0
C0
ENDCHAR

STARTCHAR char40
ENCODING 40
SWIDTH 30 0
DWIDTH 7 0
BBX 8 19 2 -3
BITMAP
01
02
0C
18
30
20
60
60
C0
C0
C0
C0
C0
C0
C0
C0
40
40
20
ENDCHAR

STARTCHAR char41
ENCODING 41
SWIDTH 30 0
DWIDTH 7 0
BBX 8 19 -2 -3
BITMAP
04
04
02
02
03
03
03
03
03
03
03
02
06
06
0C
08
10
60
80
ENDCHAR

STARTCHAR char42
ENCODING 42
SWIDTH 34 0
DWIDTH 8 0
BBX 8 8 2 7
BITMAP
08
18
CB
6E
18
6E
4B
18
ENDCHAR

STARTCHAR char43
ENCODING 43
SWIDTH 12 0
DWIDTH 13 0
BBX 12 12 1 0
BITMAP
0600
0600
0600
0600
0600
FFF0
0600
0600
0600
0600
0600
0600
ENDCHAR

STARTCHAR char44
ENCODING 44
SWIDTH 21 0
DWIDTH 5 0
BBX 3 5 0 -3
BITMAP
60
60
20
C0
80
ENDCHAR

STARTCHAR char45
ENCODING 45
SWIDTH 25 0
DWIDTH 6 0
BBX 5 2 1 4
BITMAP
F8
F8
ENDCHAR

STARTCHAR char46
ENCODING 46
SWIDTH 21 0
DWIDTH 5 0
BBX 2 2 1 0
BITMAP
C0
C0
ENDCHAR

STARTCHAR char47
ENCODING 47
SWIDTH 30 0
DWIDTH 7 0
BBX 8 15 0 0
BITMAP
03
02
06
04
04
0C
08
18
10
10
20
20
60
40
C0
ENDCHAR

STARTCHAR char48
ENCODING 48
SWIDTH 38 0
DWIDTH 9 0
BBX 9 15 1 0
BITMAP
0E00
1900
3180
2180
6180
6180
C180
C180
C100
C300
C300
C200
C600
4C00
7800
ENDCHAR

STARTCHAR char49
ENCODING 49
SWIDTH 38 0
DWIDTH 9 0
BBX 8 15 0 0
BITMAP
01
03
03
02
06
06
06
04
0C
0C
08
18
18
18
78
ENDCHAR

STARTCHAR char50
ENCODING 50
SWIDTH 38 0
DWIDTH 9 0
BBX 10 15 -1 0
BITMAP
0780
0FC0
10C0
00C0
00C0
0080
0180
0100
0300
0200
0400
1800
3080
7F00
FE00
ENDCHAR

STARTCHAR char51
ENCODING 51
SWIDTH 38 0
DWIDTH 9 0
BBX 9 15 0 0
BITMAP
0700
1980
1180
0180
0180
0300
1C00
0600
0300
0300
0300
0300
0200
C400
F800
ENDCHAR

STARTCHAR char52
ENCODING 52
SWIDTH 38 0
DWIDTH 9 0
BBX 10 15 0 0
BITMAP
0040
00C0
01C0
0380
0580
0980
1900
3300
6300
4300
FF80
0600
0600
0400
0C00
ENDCHAR

STARTCHAR char53
ENCODING 53
SWIDTH 38 0
DWIDTH 9 0
BBX 10 15 0 0
BITMAP
0FC0
0F80
0800
1000
1C00
3E00
0700
0300
0300
0300
0300
0200
0200
CC00
F000
ENDCHAR

STARTCHAR char54
ENCODING 54
SWIDTH 38 0
DWIDTH 9 0
BBX 10 15 1 0
BITMAP
01C0
0600
0C00
1800
3000
7C00
6600
E300
C300
C300
C300
C300
C200
4400
3800
ENDCHAR

STARTCHAR char55
ENCODING 55
SWIDTH 38 0
DWIDTH 9 0
BBX 9 15 2 0
BITMAP
3F80
7F00
4100
8200
0600
0400
0C00
0800
1800
1000
3000
2000
4000
4000
8000
ENDCHAR

STARTCHAR char56
ENCODING 56
SWIDTH 38 0
DWIDTH 9 0
BBX 10 15 0 0
BITMAP
0700
0880
18C0
18C0
18C0
1D80
0F00
0E00
3300
6380
C180
C180
C180
E100
7E00
ENDCHAR

STARTCHAR char57
ENCODING 57
SWIDTH 38 0
DWIDTH 9 0
BBX 10 15 0 0
BITMAP
0F00
1880
30C0
30C0
60C0
60C0
60C0
61C0
3180
1F80
0300
0600
0C00
1800
6000
ENDCHAR

STARTCHAR char58
ENCODING 58
SWIDTH 25 0
DWIDTH 6 0
BBX 4 10 2 0
BITMAP
30
30
00
00
00
00
00
00
C0
C0
ENDCHAR

STARTCHAR char59
ENCODING 59
SWIDTH 25 0
DWIDTH 6 0
BBX 5 13 1 -3
BITMAP
18
18
18
00
00
00
00
00
60
60
40
C0
80
ENDCHAR

STARTCHAR char60
ENCODING 60
SWIDTH 3 0
DWIDTH 11 0
BBX 10 11 0 0
BITMAP
0040
00C0
0380
1E00
7000
C000
E000
3800
0700
01C0
0040
ENDCHAR

STARTCHAR char61
ENCODING 61
SWIDTH 12 0
DWIDTH 13 0
BBX 14 4 0 4
BITMAP
FFFC
0000
0000
FFFC
ENDCHAR

STARTCHAR char62
ENCODING 62
SWIDTH 3 0
DWIDTH 11 0
BBX 11 11 0 0
BITMAP
8000
E000
3800
0E00
0380
00E0
01C0
0700
1C00
7000
8000
ENDCHAR

STARTCHAR char63
ENCODING 63
SWIDTH 34 0
DWIDTH 8 0
BBX 7 15 3 0
BITMAP
38
64
66
26
0E
0C
18
20
20
40
40
40
00
C0
C0
ENDCHAR

STARTCHAR char64
ENCODING 64
SWIDTH 11 0
DWIDTH 23 0
BBX 15 15 3 0
BITMAP
07E0
1838
300C
6394
6676
CC66
D826
D826
D866
D844
4DC8
6770
300C
1818
07E0
ENDCHAR

STARTCHAR char65
ENCODING 65
SWIDTH 12 0
DWIDTH 13 0
BBX 14 15 -2 0
BITMAP
0008
0018
0018
0038
0078
00B0
00B0
0130
0230
0630
07F0
0830
1030
3030
70F8
ENDCHAR

STARTCHAR char66
ENCODING 66
SWIDTH 8 0
DWIDTH 12 0
BBX 13 15 -1 0
BITMAP
0FE0
0630
0618
0618
0C18
0C30
0CE0
1FC0
1860
1870
1870
3070
3060
31C0
FF80
ENDCHAR

STARTCHAR char67
ENCODING 67
SWIDTH 12 0
DWIDTH 13 0
BBX 14 15 1 0
BITMAP
03F4
0618
1C08
3808
3008
6000
6000
C000
C000
C000
C000
E020
6020
38C0
1F00
ENDCHAR

STARTCHAR char68
ENCODING 68
SWIDTH 16 0
DWIDTH 14 0
BBX 14 15 -1 0
BITMAP
0FC0
0630
0618
0E08
0C0C
0C0C
0C0C
180C
180C
181C
1818
3030
3070
30C0
FF00
ENDCHAR

STARTCHAR char69
ENCODING 69
SWIDTH 8 0
DWIDTH 12 0
BBX 14 15 -1 0
BITMAP
0FFC
060C
0604
0604
0E00
0C40
0C40
0FC0
1840
1840
1800
3010
3010
3060
7FE0
ENDCHAR

STARTCHAR char70
ENCODING 70
SWIDTH 43 0
DWIDTH 10 0
BBX 14 15 -1 0
BITMAP
0FF0
070C
0604
0604
0600
0E20
0C40
0FC0
0C40
1840
1800
1800
3800
3000
7C00
ENDCHAR

STARTCHAR char71
ENCODING 71
SWIDTH 16 0
DWIDTH 14 0
BBX 14 15 1 0
BITMAP
03E8
0C18
1808
3008
3008
6000
6000
C0F8
C070
C060
C060
E060
60C0
70C0
1F80
ENDCHAR

STARTCHAR char72
ENCODING 72
SWIDTH 16 0
DWIDTH 14 0
BBX 16 15 -1 0
BITMAP
1F8F
0606
0606
0E0C
0C0C
0C0C
0C1C
1FF8
1818
1818
1830
3030
3030
3070
F9F0
ENDCHAR

STARTCHAR char73
ENCODING 73
SWIDTH 30 0
DWIDTH 7 0
BBX 8 15 0 0
BITMAP
1F
0E
0E
0C
0C
0C
1C
18
18
18
30
30
30
70
F0
ENDCHAR

STARTCHAR char74
ENCODING 74
SWIDTH 34 0
DWIDTH 8 0
BBX 12 15 -1 0
BITMAP
03E0
01C0
0180
0180
0180
0300
0300
0300
0700
0600
0600
0600
CC00
CC00
7000
ENDCHAR

STARTCHAR char75
ENCODING 75
SWIDTH 12 0
DWIDTH 13 0
BBX 16 15 -1 0
BITMAP
0F8F
070C
0618
0620
0C40
0C80
0F00
1F00
1B80
1980
19C0
30C0
30E0
3060
F8F8
ENDCHAR

STARTCHAR char76
ENCODING 76
SWIDTH 8 0
DWIDTH 12 0
BBX 13 15 -1 0
BITMAP
0F80
0700
0600
0600
0E00
0C00
0C00
0C00
1800
1800
1800
3010
3010
3030
FFE0
ENDCHAR

STARTCHAR char77
ENCODING 77
SWIDTH 29 0
DWIDTH 17 0
BBX 21 15 -2 0
BITMAP
0F00F0
0380E0
0781C0
0582C0
0583C0
058580
098D80
098980
099300
099300
11A300
11C700
118600
218600
790F00
ENDCHAR

STARTCHAR char78
ENCODING 78
SWIDTH 16 0
DWIDTH 14 0
BBX 17 15 -1 0
BITMAP
1E0F80
060200
070200
0B0400
0B0400
098400
098800
11C800
10C800
10E800
207000
207000
203000
602000
F02000
ENDCHAR

STARTCHAR char79
ENCODING 79
SWIDTH 16 0
DWIDTH 14 0
BBX 13 15 1 0
BITMAP
03C0
0C30
1810
3018
3018
6018
6018
E038
C030
C030
C060
C060
40C0
6180
3E00
ENDCHAR

STARTCHAR char80
ENCODING 80
SWIDTH 3 0
DWIDTH 11 0
BBX 13 15 -1 0
BITMAP
0FE0
0730
0618
0618
0618
0C38
0C70
0FC0
1C00
1800
1800
1800
3000
3000
F800
ENDCHAR

STARTCHAR char81
ENCODING 81
SWIDTH 16 0
DWIDTH 14 0
BBX 13 18 1 -3
BITMAP
03C0
0C30
1810
3018
7018
6018
6018
C038
C030
C030
C070
C060
40C0
6180
3F00
0808
3E30
7FC0
ENDCHAR

STARTCHAR char82
ENCODING 82
SWIDTH 12 0
DWIDTH 13 0
BBX 13 15 -1 0
BITMAP
0FC0
0630
0618
0618
0C18
0C30
0C60
1F80
1980
19C0
18C0
30C0
3060
3060
FC78
ENDCHAR

STARTCHAR char83
ENCODING 83
SWIDTH 43 0
DWIDTH 10 0
BBX 13 15 -1 0
BITMAP
0788
0C70
1830
1810
1810
1C00
0E00
0700
0380
01C0
40C0
40C0
40C0
6180
9F00
ENDCHAR

STARTCHAR char84
ENCODING 84
SWIDTH 3 0
DWIDTH 11 0
BBX 13 15 1 0
BITMAP
7FE0
6318
4710
8610
0600
0600
0C00
0C00
0C00
1C00
1800
1800
1800
3000
7800
ENDCHAR

STARTCHAR char85
ENCODING 85
SWIDTH 16 0
DWIDTH 14 0
BBX 14 15 2 0
BITMAP
7E3C
3810
3010
3010
6020
6020
6020
6040
4040
C040
C080
C080
C180
6300
3C00
ENDCHAR

STARTCHAR char86
ENCODING 86
SWIDTH 12 0
DWIDTH 13 0
BBX 14 15 2 0
BITMAP
7838
3030
3020
3040
3080
3080
3100
3200
3400
3400
3800
3000
2000
4000
4000
ENDCHAR

STARTCHAR char87
ENCODING 87
SWIDTH 33 0
DWIDTH 18 0
BBX 20 14 2 1
BITMAP
7DF1E0
30E0C0
306080
30E100
30C200
31C200
32C400
34C800
34C800
38D000
78E000
60C000
608000
408000
ENDCHAR

STARTCHAR char88
ENCODING 88
SWIDTH 8 0
DWIDTH 12 0
BBX 16 15 -2 0
BITMAP
0FCF
0306
0308
0310
03A0
01A0
01C0
0180
01C0
02C0
04C0
08C0
10E0
3060
70F0
ENDCHAR

STARTCHAR char89
ENCODING 89
SWIDTH 8 0
DWIDTH 12 0
BBX 13 15 2 0
BITMAP
F878
3830
1820
1840
1880
0D00
0E00
0E00
0C00
0C00
1C00
1800
1800
3800
FE00
ENDCHAR

STARTCHAR char90
ENCODING 90
SWIDTH 12 0
DWIDTH 13 0
BBX 15 15 -1 0
BITMAP
1FFE
181C
1038
1030
0060
00C0
01C0
0380
0700
0600
0C00
1808
3808
7010
7FF0
ENDCHAR

STARTCHAR char91
ENCODING 91
SWIDTH 30 0
DWIDTH 7 0
BBX 9 18 0 -3
BITMAP
0780
0C00
0C00
0C00
0800
1800
1800
1000
3000
3000
3000
2000
6000
6000
4000
C000
C000
F000
ENDCHAR

STARTCHAR char92
ENCODING 92
SWIDTH 25 0
DWIDTH 6 0
BBX 6 15 0 0
BITMAP
80
C0
40
40
60
20
20
30
10
10
18
18
08
0C
0C
ENDCHAR

STARTCHAR char93
ENCODING 93
SWIDTH 30 0
DWIDTH 7 0
BBX 10 18 -2 -3
BITMAP
0780
0180
0180
0180
0100
0300
0300
0200
0600
0600
0600
0400
0C00
0C00
0800
1800
1800
F800
ENDCHAR

STARTCHAR char94
ENCODING 94
SWIDTH 0 0
DWIDTH 0 0
BBX 6 3 0 16
BITMAP
30
78
8C
ENDCHAR

STARTCHAR char95
ENCODING 95
SWIDTH 8 0
DWIDTH 12 0
BBX 12 1 0 -3
BITMAP
FFF0
ENDCHAR

STARTCHAR char96
ENCODING 96
SWIDTH 0 0
DWIDTH 0 0
BBX 3 3 1 12
BITMAP
C0
60
20
ENDCHAR

STARTCHAR char97
ENCODING 97
SWIDTH 43 0
DWIDTH 10 0
BBX 10 10 0 0
BITMAP
06C0
19C0
3180
6180
6180
C100
C300
C740
CFC0
7300
ENDCHAR

STARTCHAR char98
ENCODING 98
SWIDTH 43 0
DWIDTH 10 0
BBX 8 15 1 0
BITMAP
08
18
10
30
30
2E
33
63
63
43
C3
C2
84
8C
F0
ENDCHAR

STARTCHAR char99
ENCODING 99
SWIDTH 34 0
DWIDTH 8 0
BBX 8 10 1 0
BITMAP
0E
13
23
40
40
C0
C0
C0
C6
78
ENDCHAR

STARTCHAR char100
ENCODING 100
SWIDTH 43 0
DWIDTH 10 0
BBX 11 15 0 0
BITMAP
0020
0060
0060
0040
00C0
07C0
1980
3180
2180
6180
C300
C300
C700
CB80
7300
ENDCHAR

STARTCHAR char101
ENCODING 101
SWIDTH 34 0
DWIDTH 8 0
BBX 8 10 1 0
BITMAP
0E
13
23
46
4C
F0
C0
C0
CE
70
ENDCHAR

STARTCHAR char102
ENCODING 102
SWIDTH 25 0
DWIDTH 6 0
BBX 13 18 -3 -3
BITMAP
0038
0058
0098
0180
0180
07C0
0300
0300
0200
0200
0600
0600
0400
0C00
0C00
0800
D800
F000
ENDCHAR

STARTCHAR char103
ENCODING 103
SWIDTH 38 0
DWIDTH 9 0
BBX 10 13 -1 -3
BITMAP
0E00
19C0
3180
3180
3180
1F00
1000
3000
3C00
2700
C180
C100
7F00
ENDCHAR

STARTCHAR char104
ENCODING 104
SWIDTH 43 0
DWIDTH 10 0
BBX 10 15 0 0
BITMAP
0400
0C00
0800
1800
1800
11C0
36C0
34C0
38C0
3180
6180
6180
4300
C340
4380
ENDCHAR

STARTCHAR char105
ENCODING 105
SWIDTH 21 0
DWIDTH 5 0
BBX 5 14 1 0
BITMAP
18
18
00
00
70
30
30
20
60
60
40
40
F0
C0
ENDCHAR

STARTCHAR char106
ENCODING 106
SWIDTH 21 0
DWIDTH 5 0
BBX 9 17 -4 -3
BITMAP
0180
0180
0000
0000
0100
0300
0300
0300
0200
0200
0600
0600
0400
0400
0C00
4800
F000
ENDCHAR

STARTCHAR char107
ENCODING 107
SWIDTH 43 0
DWIDTH 10 0
BBX 11 14 0 0
BITMAP
0C00
0800
1800
1800
19E0
1180
3200
3400
2C00
7400
6600
6240
4340
4180
ENDCHAR

STARTCHAR char108
ENCODING 108
SWIDTH 21 0
DWIDTH 5 0
BBX 6 15 1 0
BITMAP
08
18
18
18
10
30
30
20
20
60
60
40
C0
F0
C0
ENDCHAR

STARTCHAR char109
ENCODING 109
SWIDTH 20 0
DWIDTH 15 0
BBX 14 10 0 0
BITMAP
039C
37BC
39CC
314C
7398
6318
6318
C230
C634
4238
ENDCHAR

STARTCHAR char110
ENCODING 110
SWIDTH 43 0
DWIDTH 10 0
BBX 10 10 0 0
BITMAP
0180
3380
3480
3980
3180
3100
6300
6300
43C0
4300
ENDCHAR

STARTCHAR char111
ENCODING 111
SWIDTH 43 0
DWIDTH 10 0
BBX 8 10 1 0
BITMAP
0E
32
63
43
C3
C3
C2
C6
CC
70
ENDCHAR

STARTCHAR char112
ENCODING 112
SWIDTH 43 0
DWIDTH 10 0
BBX 12 13 -3 -3
BITMAP
0EE0
0770
0630
0630
0430
0C20
0C60
0840
18C0
1F00
1000
1000
7000
ENDCHAR

STARTCHAR char113
ENCODING 113
SWIDTH 43 0
DWIDTH 10 0
BBX 10 13 0 -3
BITMAP
0EC0
19C0
3080
6180
6180
C100
C300
C700
EA00
7200
0600
0600
1F00
ENDCHAR

STARTCHAR char114
ENCODING 114
SWIDTH 30 0
DWIDTH 7 0
BBX 7 10 1 0
BITMAP
72
36
3A
70
60
60
40
C0
C0
80
ENDCHAR

STARTCHAR char115
ENCODING 115
SWIDTH 34 0
DWIDTH 8 0
BBX 8 10 0 0
BITMAP
1F
33
31
31
18
1C
0E
86
C6
BC
ENDCHAR

STARTCHAR char116
ENCODING 116
SWIDTH 25 0
DWIDTH 6 0
BBX 6 12 1 0
BITMAP
08
10
7C
30
20
60
60
60
C0
C0
D0
E0
ENDCHAR

STARTCHAR char117
ENCODING 117
SWIDTH 43 0
DWIDTH 10 0
BBX 9 10 1 0
BITMAP
3100
F180
B180
6100
6300
4300
CE00
CE00
D780
E600
ENDCHAR

STARTCHAR char118
ENCODING 118
SWIDTH 34 0
DWIDTH 8 0
BBX 8 10 0 0
BITMAP
23
63
31
31
32
32
14
1C
10
10
ENDCHAR

STARTCHAR char119
ENCODING 119
SWIDTH 8 0
DWIDTH 12 0
BBX 13 10 0 0
BITMAP
6110
7318
3318
3710
3710
3920
3940
31C0
3100
2100
ENDCHAR

STARTCHAR char120
ENCODING 120
SWIDTH 43 0
DWIDTH 10 0
BBX 11 10 -1 0
BITMAP
3860
18E0
0D00
0500
0600
0600
0B00
0B00
9140
E180
ENDCHAR

STARTCHAR char121
ENCODING 121
SWIDTH 34 0
DWIDTH 8 0
BBX 10 13 -2 -3
BITMAP
38C0
18C0
0840
0840
0C80
0C80
0D00
0E00
0C00
0C00
0800
9000
E000
ENDCHAR

STARTCHAR char122
ENCODING 122
SWIDTH 34 0
DWIDTH 8 0
BBX 8 10 0 0
BITMAP
3F
7A
46
0C
08
10
20
62
46
FC
ENDCHAR

STARTCHAR char123
ENCODING 123
SWIDTH 30 0
DWIDTH 7 0
BBX 5 19 1 -4
BITMAP
38
70
60
60
20
20
20
60
40
80
60
60
60
60
60
60
60
70
38
ENDCHAR

STARTCHAR char124
ENCODING 124
SWIDTH 25 0
DWIDTH 6 0
BBX 2 15 2 0
BITMAP
C0
C0
C0
C0
C0
C0
C0
C0
C0
C0
C0
C0
C0
C0
C0
ENDCHAR

STARTCHAR char125
ENCODING 125
SWIDTH 30 0
DWIDTH 7 0
BBX 5 19 1 -4
BITMAP
C0
20
20
20
30
30
30
30
10
08
10
30
30
30
30
30
30
70
E0
ENDCHAR

STARTCHAR char126
ENCODING 126
SWIDTH 0 0
DWIDTH 0 0
BBX 7 2 0 17
BITMAP
72
BC
ENDCHAR

STARTCHAR char128
ENCODING 128
SWIDTH 43 0
DWIDTH 10 0
BBX 12 14 0 0
BITMAP
01F0
0610
0C10
1810
1000
3000
7F80
FF80
6000
6000
6000
6080
6180
3E00
ENDCHAR

STARTCHAR char130
ENCODING 130
SWIDTH 21 0
DWIDTH 5 0
BBX 3 5 0 -3
BITMAP
60
60
40
C0
80
ENDCHAR

STARTCHAR char131
ENCODING 131
SWIDTH 0 0
DWIDTH 0 0
BBX 6 3 0 16
BITMAP
30
78
8C
ENDCHAR

STARTCHAR char132
ENCODING 132
SWIDTH 34 0
DWIDTH 8 0
BBX 6 5 0 -3
BITMAP
6C
6C
24
D8
90
ENDCHAR

STARTCHAR char133
ENCODING 133
SWIDTH 7 0
DWIDTH 22 0
BBX 16 2 2 0
BITMAP
C183
C183
ENDCHAR

STARTCHAR char134
ENCODING 134
SWIDTH 38 0
DWIDTH 9 0
BBX 8 18 2 -3
BITMAP
04
0C
0C
08
EF
F7
10
38
30
30
20
20
20
40
40
40
80
80
ENDCHAR

STARTCHAR char135
ENCODING 135
SWIDTH 3 0
DWIDTH 21 0
BBX 0 0 0 0
BITMAP
ENDCHAR

STARTCHAR char136
ENCODING 136
SWIDTH 0 0
DWIDTH 0 0
BBX 6 3 0 12
BITMAP
38
28
48
ENDCHAR

STARTCHAR char137
ENCODING 137
SWIDTH 3 0
DWIDTH 21 0
BBX 0 0 0 0
BITMAP
ENDCHAR

STARTCHAR char138
ENCODING 138
SWIDTH 3 0
DWIDTH 21 0
BBX 0 0 0 0
BITMAP
ENDCHAR

STARTCHAR char139
ENCODING 139
SWIDTH 30 0
DWIDTH 7 0
BBX 3 7 2 2
BITMAP
20
60
C0
80
E0
60
20
ENDCHAR

STARTCHAR char140
ENCODING 140
SWIDTH 38 0
DWIDTH 19 0
BBX 21 15 0 0
BITMAP
01FFF0
063C30
0C1C10
181810
301800
701880
603880
E03F00
C03100
C03100
C06000
C06040
606040
71E0C0
1FFFC0
ENDCHAR

STARTCHAR char141
ENCODING 141
SWIDTH 3 0
DWIDTH 21 0
BBX 0 0 0 0
BITMAP
ENDCHAR

STARTCHAR char143
ENCODING 143
SWIDTH 3 0
DWIDTH 21 0
BBX 0 0 0 0
BITMAP
ENDCHAR

STARTCHAR char145
ENCODING 145
SWIDTH 21 0
DWIDTH 5 0
BBX 4 5 3 10
BITMAP
30
40
C0
E0
C0
ENDCHAR

STARTCHAR char146
ENCODING 146
SWIDTH 21 0
DWIDTH 5 0
BBX 4 5 3 10
BITMAP
30
70
30
60
80
ENDCHAR

STARTCHAR char147
ENCODING 147
SWIDTH 34 0
DWIDTH 8 0
BBX 7 5 3 10
BITMAP
26
48
90
D8
D8
ENDCHAR

STARTCHAR char148
ENCODING 148
SWIDTH 34 0
DWIDTH 8 0
BBX 6 5 3 10
BITMAP
6C
6C
24
48
90
ENDCHAR

STARTCHAR char149
ENCODING 149
SWIDTH 30 0
DWIDTH 7 0
BBX 5 5 1 5
BITMAP
70
F8
F8
F8
70
ENDCHAR

STARTCHAR char150
ENCODING 150
SWIDTH 38 0
DWIDTH 9 0
BBX 9 2 0 4
BITMAP
7F80
FF80
ENDCHAR

STARTCHAR char151
ENCODING 151
SWIDTH 12 0
DWIDTH 13 0
BBX 14 1 0 6
BITMAP
FFFC
ENDCHAR

STARTCHAR char152
ENCODING 152
SWIDTH 0 0
DWIDTH 0 0
BBX 8 2 -1 12
BITMAP
7A
8C
ENDCHAR

STARTCHAR char153
ENCODING 153
SWIDTH 29 0
DWIDTH 17 0
BBX 17 8 -1 6
BITMAP
FEC180
924300
106500
306500
306700
305700
305B00
38CB80
ENDCHAR

STARTCHAR char154
ENCODING 154
SWIDTH 3 0
DWIDTH 21 0
BBX 0 0 0 0
BITMAP
ENDCHAR

STARTCHAR char155
ENCODING 155
SWIDTH 30 0
DWIDTH 7 0
BBX 3 7 2 2
BITMAP
80
C0
60
20
E0
80
80
ENDCHAR

STARTCHAR char156
ENCODING 156
SWIDTH 16 0
DWIDTH 14 0
BBX 15 10 0 0
BITMAP
0E1C
3166
21C6
618C
C198
C1E0
C300
C300
C78C
78F0
ENDCHAR

STARTCHAR char157
ENCODING 157
SWIDTH 3 0
DWIDTH 21 0
BBX 0 0 0 0
BITMAP
ENDCHAR

STARTCHAR char159
ENCODING 159
SWIDTH 8 0
DWIDTH 12 0
BBX 13 18 2 0
BITMAP
0CC0
0CC0
0000
F878
3820
1840
1880
1880
0D00
0E00
0600
0C00
0C00
0800
1800
1800
3800
FE00
ENDCHAR

STARTCHAR char160
ENCODING 160
SWIDTH 21 0
DWIDTH 5 0
BBX 0 0 0 0
BITMAP
ENDCHAR

STARTCHAR char161
ENCODING 161
SWIDTH 25 0
DWIDTH 6 0
BBX 5 15 1 0
BITMAP
18
18
00
00
10
10
20
20
20
60
40
40
C0
C0
80
ENDCHAR

STARTCHAR char162
ENCODING 162
SWIDTH 34 0
DWIDTH 8 0
BBX 8 16 1 -3
BITMAP
04
04
04
1F
3B
6B
48
D0
D0
D0
D0
E6
78
20
20
40
ENDCHAR

STARTCHAR char163
ENCODING 163
SWIDTH 3 0
DWIDTH 11 0
BBX 13 15 -1 0
BITMAP
00F0
0198
0318
0300
0600
0600
0600
1FC0
0600
0E00
0C00
0C20
F820
9FC0
E780
ENDCHAR

STARTCHAR char164
ENCODING 164
SWIDTH 0 0
DWIDTH 0 0
BBX 5 3 2 16
BITMAP
38
60
80
ENDCHAR

STARTCHAR char165
ENCODING 165
SWIDTH 0 0
DWIDTH 0 0
BBX 7 3 0 16
BITMAP
06
68
30
ENDCHAR

STARTCHAR char166
ENCODING 166
SWIDTH 3 0
DWIDTH 21 0
BBX 0 0 0 0
BITMAP
ENDCHAR

STARTCHAR char167
ENCODING 167
SWIDTH 34 0
DWIDTH 8 0
BBX 11 19 -1 -3
BITMAP
03C0
0260
0660
0600
0600
0600
1F00
6300
6180
7180
3180
1980
1F00
0E00
0E00
0600
4600
CC00
7800
ENDCHAR

STARTCHAR char168
ENCODING 168
SWIDTH 0 0
DWIDTH 0 0
BBX 6 2 0 12
BITMAP
CC
CC
ENDCHAR

STARTCHAR char169
ENCODING 169
SWIDTH 20 0
DWIDTH 15 0
BBX 15 14 -1 0
BITMAP
03C0
0C30
1008
23E4
6624
4426
CC06
CC06
CC06
4406
6644
2388
1818
07E0
ENDCHAR

STARTCHAR char170
ENCODING 170
SWIDTH 0 0
DWIDTH 0 0
BBX 7 2 0 16
BITMAP
C6
C6
ENDCHAR

STARTCHAR char171
ENCODING 171
SWIDTH 38 0
DWIDTH 9 0
BBX 8 9 1 1
BITMAP
11
31
62
C6
CC
CC
C4
44
44
ENDCHAR

STARTCHAR char172
ENCODING 172
SWIDTH 16 0
DWIDTH 14 0
BBX 14 6 -1 0
BITMAP
FFFC
000C
000C
000C
000C
000C
ENDCHAR

STARTCHAR char173
ENCODING 173
SWIDTH 3 0
DWIDTH 21 0
BBX 0 0 0 0
BITMAP
ENDCHAR

STARTCHAR char174
ENCODING 174
SWIDTH 20 0
DWIDTH 15 0
BBX 15 14 -1 0
BITMAP
03C0
0C30
1008
27CC
6664
4666
C646
C786
C6C6
46E6
6774
200C
1818
07E0
ENDCHAR

STARTCHAR char175
ENCODING 175
SWIDTH 3 0
DWIDTH 21 0
BBX 0 0 0 0
BITMAP
ENDCHAR

STARTCHAR char176
ENCODING 176
SWIDTH 21 0
DWIDTH 5 0
BBX 7 6 2 8
BITMAP
38
44
C6
C6
46
3C
ENDCHAR

STARTCHAR char177
ENCODING 177
SWIDTH 3 0
DWIDTH 11 0
BBX 11 13 -1 0
BITMAP
0600
0600
0600
0600
0600
FFE0
0600
0600
0600
0600
0600
0000
FFE0
ENDCHAR

STARTCHAR char178
ENCODING 178
SWIDTH 3 0
DWIDTH 21 0
BBX 0 0 0 0
BITMAP
ENDCHAR

STARTCHAR char179
ENCODING 179
SWIDTH 3 0
DWIDTH 21 0
BBX 0 0 0 0
BITMAP
ENDCHAR

STARTCHAR char180
ENCODING 180
SWIDTH 0 0
DWIDTH 0 0
BBX 4 3 2 12
BITMAP
60
40
80
ENDCHAR

STARTCHAR char181
ENCODING 181
SWIDTH 3 0
DWIDTH 21 0
BBX 0 0 0 0
BITMAP
ENDCHAR

STARTCHAR char182
ENCODING 182
SWIDTH 20 0
DWIDTH 15 0
BBX 9 18 2 -3
BITMAP
3F80
7980
F980
F980
F980
F980
F980
7980
1980
1980
1980
1980
1980
1980
1980
1980
1980
1980
ENDCHAR

STARTCHAR char183
ENCODING 183
SWIDTH 12 0
DWIDTH 3 0
BBX 2 2 2 5
BITMAP
C0
C0
ENDCHAR

STARTCHAR char184
ENCODING 184
SWIDTH 0 0
DWIDTH 0 0
BBX 4 4 -3 -4
BITMAP
20
70
30
E0
ENDCHAR

STARTCHAR char186
ENCODING 186
SWIDTH 0 0
DWIDTH 0 0
BBX 7 2 0 17
BITMAP
72
BC
ENDCHAR

STARTCHAR char187
ENCODING 187
SWIDTH 38 0
DWIDTH 9 0
BBX 9 9 0 1
BITMAP
2200
2300
3100
1180
1980
3300
6200
4400
8800
ENDCHAR

STARTCHAR char188
ENCODING 188
SWIDTH 3 0
DWIDTH 21 0
BBX 0 0 0 0
BITMAP
ENDCHAR

STARTCHAR char189
ENCODING 189
SWIDTH 3 0
DWIDTH 21 0
BBX 0 0 0 0
BITMAP
ENDCHAR

STARTCHAR char191
ENCODING 191
SWIDTH 34 0
DWIDTH 8 0
BBX 7 15 0 0
BITMAP
06
06
00
00
04
04
04
08
10
60
60
C0
CC
CC
78
ENDCHAR

STARTCHAR char192
ENCODING 192
SWIDTH 12 0
DWIDTH 13 0
BBX 14 19 -2 0
BITMAP
00E0
0070
0010
0000
0008
0018
0018
0038
0078
00B0
00B0
0130
0230
0630
07F0
0830
1030
3030
70F8
ENDCHAR

STARTCHAR char193
ENCODING 193
SWIDTH 12 0
DWIDTH 13 0
BBX 14 19 -2 0
BITMAP
001C
0030
0060
0000
0008
0018
0018
0038
0078
00B0
00B0
0130
0230
0630
07F0
0830
1030
3030
70F8
ENDCHAR

STARTCHAR char194
ENCODING 194
SWIDTH 12 0
DWIDTH 13 0
BBX 14 19 -2 0
BITMAP
0030
0070
0188
0000
0008
0018
0018
0038
0078
00B0
00B0
0130
0230
0630
07F0
0830
1030
3030
70F8
ENDCHAR

STARTCHAR char195
ENCODING 195
SWIDTH 12 0
DWIDTH 13 0
BBX 15 19 -2 0
BITMAP
00FC
0138
0000
0000
0008
0018
0018
0038
0078
00B0
00B0
0130
0230
0630
07F0
0830
1030
3030
70F8
ENDCHAR

STARTCHAR char196
ENCODING 196
SWIDTH 12 0
DWIDTH 13 0
BBX 16 18 -2 0
BITMAP
0033
0033
0000
0008
0018
0018
0038
0078
00B0
00B0
0130
0230
0630
07F0
0830
1030
3030
70F8
ENDCHAR

STARTCHAR char197
ENCODING 197
SWIDTH 12 0
DWIDTH 13 0
BBX 16 19 -2 0
BITMAP
000E
0013
0013
000E
0008
0018
0018
0038
0078
00B0
00B0
0130
0230
0630
07F0
0830
1030
3030
70F8
ENDCHAR

STARTCHAR char198
ENCODING 198
SWIDTH 33 0
DWIDTH 18 0
BBX 21 15 -2 0
BITMAP
003FF8
001C10
002C10
003810
005800
009880
011880
023F80
023100
07F100
087000
106020
306040
20E0C0
F3FFC0
ENDCHAR

STARTCHAR char199
ENCODING 199
SWIDTH 12 0
DWIDTH 13 0
BBX 14 19 1 -4
BITMAP
03F4
0618
1C08
3808
3808
7000
6000
E000
C000
C000
C000
E010
6020
38C0
1F00
0800
1C00
0C00
7000
ENDCHAR

STARTCHAR char200
ENCODING 200
SWIDTH 8 0
DWIDTH 12 0
BBX 14 19 -1 0
BITMAP
03C0
00C0
0020
0000
0FFC
060C
0604
0604
0E00
0C40
0C40
0FC0
1840
1840
1800
3010
3010
3060
7FE0
ENDCHAR

STARTCHAR char201
ENCODING 201
SWIDTH 8 0
DWIDTH 12 0
BBX 14 19 -1 0
BITMAP
0078
0060
0080
0000
0FFC
060C
0604
0604
0E00
0C40
0C40
0FC0
1840
1840
1800
3010
3010
3060
7FE0
ENDCHAR

STARTCHAR char202
ENCODING 202
SWIDTH 8 0
DWIDTH 12 0
BBX 14 19 -1 0
BITMAP
00C0
01E0
0220
0000
0FFC
060C
0604
0604
0E00
0C40
0C40
0FC0
1840
1840
1800
3010
3010
3060
7FE0
ENDCHAR

STARTCHAR char203
ENCODING 203
SWIDTH 8 0
DWIDTH 12 0
BBX 14 18 -1 0
BITMAP
0318
0318
0000
0FFC
0604
0604
0604
0E00
0E20
0C40
0FC0
1840
1840
1800
3010
3010
3070
FFF0
ENDCHAR

STARTCHAR char204
ENCODING 204
SWIDTH 30 0
DWIDTH 7 0
BBX 8 19 0 0
BITMAP
1C
06
01
00
1F
0E
0E
0C
0C
0C
1C
18
18
18
30
30
30
70
F0
ENDCHAR

STARTCHAR char205
ENCODING 205
SWIDTH 30 0
DWIDTH 7 0
BBX 11 19 -1 0
BITMAP
01C0
0180
0200
0000
0F80
0700
0700
0600
0600
0600
0E00
0C00
0C00
0C00
1800
1800
1800
3800
7800
ENDCHAR

STARTCHAR char206
ENCODING 206
SWIDTH 30 0
DWIDTH 7 0
BBX 8 19 0 0
BITMAP
06
0F
11
00
1F
0E
0E
0C
0C
0C
1C
18
18
18
30
30
30
70
F0
ENDCHAR

STARTCHAR char207
ENCODING 207
SWIDTH 30 0
DWIDTH 7 0
BBX 11 18 -1 0
BITMAP
0C60
0C60
0000
0F80
0300
0300
0200
0600
0600
0600
0C00
0C00
0C00
1800
1800
1800
3800
7800
ENDCHAR

STARTCHAR char208
ENCODING 208
SWIDTH 3 0
DWIDTH 21 0
BBX 0 0 0 0
BITMAP
ENDCHAR

STARTCHAR char209
ENCODING 209
SWIDTH 16 0
DWIDTH 14 0
BBX 17 19 -1 0
BITMAP
00F400
017800
000000
000000
1E0F80
060200
070200
0B0400
0B0400
098400
098800
11C800
10C800
10E800
207000
207000
203000
602000
F02000
ENDCHAR

STARTCHAR char210
ENCODING 210
SWIDTH 16 0
DWIDTH 14 0
BBX 13 19 1 0
BITMAP
0780
0180
0040
0000
03C0
0C30
1810
3018
3018
6018
6018
E038
C030
C030
C060
C060
40C0
6180
3E00
ENDCHAR

STARTCHAR char211
ENCODING 211
SWIDTH 16 0
DWIDTH 14 0
BBX 13 19 1 0
BITMAP
0070
00C0
0100
0000
03C0
0C30
1810
3018
3018
6018
6018
E038
C030
C030
C060
C060
40C0
6180
3E00
ENDCHAR

STARTCHAR char212
ENCODING 212
SWIDTH 16 0
DWIDTH 14 0
BBX 13 19 1 0
BITMAP
0180
03C0
0420
0000
03C0
0C30
1810
3018
3018
6018
6018
E038
C030
C030
C060
C060
40C0
6180
3E00
ENDCHAR

STARTCHAR char213
ENCODING 213
SWIDTH 16 0
DWIDTH 14 0
BBX 13 19 1 0
BITMAP
03D0
05E0
0000
0000
03C0
0C30
1810
3018
3018
6018
6018
E038
C030
C030
C070
C060
40C0
6180
3E00
ENDCHAR

STARTCHAR char214
ENCODING 214
SWIDTH 16 0
DWIDTH 14 0
BBX 13 18 1 0
BITMAP
0318
0318
0000
03C0
0C30
1810
3018
3018
6018
6018
E018
C030
C030
C070
C060
40C0
6180
3E00
ENDCHAR

STARTCHAR char215
ENCODING 215
SWIDTH 3 0
DWIDTH 21 0
BBX 0 0 0 0
BITMAP
ENDCHAR

STARTCHAR char216
ENCODING 216
SWIDTH 16 0
DWIDTH 14 0
BBX 13 17 1 -1
BITMAP
0008
03E8
0C70
1830
3058
3098
6098
6118
C238
C430
C430
C860
D060
60C0
6180
7E00
8000
ENDCHAR

STARTCHAR char217
ENCODING 217
SWIDTH 16 0
DWIDTH 14 0
BBX 14 19 2 0
BITMAP
0F00
0300
0080
0000
7E3C
3810
3010
3010
6020
6020
6020
6040
4040
C040
C080
C080
C180
6300
3C00
ENDCHAR

STARTCHAR char218
ENCODING 218
SWIDTH 16 0
DWIDTH 14 0
BBX 14 19 2 0
BITMAP
00E0
0180
0200
0000
7E3C
3810
3010
3010
6020
6020
6020
6040
4040
C040
C080
C080
C180
6300
3C00
ENDCHAR

STARTCHAR char219
ENCODING 219
SWIDTH 16 0
DWIDTH 14 0
BBX 14 19 2 0
BITMAP
0300
0780
0840
0000
7E3C
3810
3010
3010
6020
6020
6020
6040
4040
C040
C080
C080
C180
6300
3C00
ENDCHAR

STARTCHAR char220
ENCODING 220
SWIDTH 16 0
DWIDTH 14 0
BBX 14 18 2 0
BITMAP
0630
0630
0000
7C3C
3810
3010
3010
6010
6020
6020
6020
4040
C040
C080
C080
C180
6300
3C00
ENDCHAR

STARTCHAR char221
ENCODING 221
SWIDTH 3 0
DWIDTH 21 0
BBX 0 0 0 0
BITMAP
ENDCHAR

STARTCHAR char222
ENCODING 222
SWIDTH 3 0
DWIDTH 21 0
BBX 0 0 0 0
BITMAP
ENDCHAR

STARTCHAR char223
ENCODING 223
SWIDTH 43 0
DWIDTH 10 0
BBX 15 18 -5 -3
BITMAP
0038
0066
00C6
00C6
00C6
018C
01B0
0198
0308
0308
030C
020C
0658
06D8
04E0
0C00
D800
F000
ENDCHAR

STARTCHAR char224
ENCODING 224
SWIDTH 43 0
DWIDTH 10 0
BBX 10 15 0 0
BITMAP
0700
0300
0100
0000
0000
0EC0
19C0
3180
6180
6180
C100
C300
C740
CFC0
7300
ENDCHAR

STARTCHAR char225
ENCODING 225
SWIDTH 43 0
DWIDTH 10 0
BBX 10 15 0 0
BITMAP
0180
0180
0100
0000
0000
0EC0
19C0
3180
6180
6180
C100
C300
C740
CFC0
7300
ENDCHAR

STARTCHAR char226
ENCODING 226
SWIDTH 43 0
DWIDTH 10 0
BBX 10 15 0 0
BITMAP
0180
0380
0440
0000
0000
0EC0
19C0
3180
6180
6180
C100
C300
C740
CFC0
7300
ENDCHAR

STARTCHAR char227
ENCODING 227
SWIDTH 43 0
DWIDTH 10 0
BBX 11 14 0 0
BITMAP
07E0
0980
0000
0000
0EC0
19C0
3180
6180
6180
C100
C300
C740
CBC0
7300
ENDCHAR

STARTCHAR char228
ENCODING 228
SWIDTH 43 0
DWIDTH 10 0
BBX 10 14 0 0
BITMAP
06C0
06C0
0000
0000
0680
1980
3180
2180
6100
4100
C300
C300
CF80
7300
ENDCHAR

STARTCHAR char229
ENCODING 229
SWIDTH 43 0
DWIDTH 10 0
BBX 10 15 0 0
BITMAP
0380
02C0
02C0
0380
0000
07C0
1980
3080
6080
6180
C100
C300
C300
CFC0
7380
ENDCHAR

STARTCHAR char230
ENCODING 230
SWIDTH 16 0
DWIDTH 14 0
BBX 15 10 0 0
BITMAP
0EFC
11C6
3186
618C
4130
C3C0
C380
C700
CB98
71E0
ENDCHAR

STARTCHAR char231
ENCODING 231
SWIDTH 34 0
DWIDTH 8 0
BBX 9 14 0 -4
BITMAP
0700
0980
1180
3000
2000
6000
6000
6000
7300
3C00
2000
7000
3000
E000
ENDCHAR

STARTCHAR char232
ENCODING 232
SWIDTH 34 0
DWIDTH 8 0
BBX 8 15 1 0
BITMAP
0C
0C
04
00
00
0E
13
23
46
4C
F0
C0
C0
CE
70
ENDCHAR

STARTCHAR char233
ENCODING 233
SWIDTH 34 0
DWIDTH 8 0
BBX 9 15 0 0
BITMAP
0380
0300
0200
0000
0000
0700
1980
3180
6300
6E00
F000
C000
C000
E700
7800
ENDCHAR

STARTCHAR char234
ENCODING 234
SWIDTH 34 0
DWIDTH 8 0
BBX 9 15 0 0
BITMAP
0300
0780
0880
0000
0000
0700
1980
3180
6300
6E00
F000
C000
C000
E700
7800
ENDCHAR

STARTCHAR char235
ENCODING 235
SWIDTH 34 0
DWIDTH 8 0
BBX 9 14 0 0
BITMAP
1980
1980
0000
0000
0700
1900
3100
6300
6E00
F000
C000
C000
E600
7800
ENDCHAR

STARTCHAR char236
ENCODING 236
SWIDTH 21 0
DWIDTH 5 0
BBX 5 15 1 0
BITMAP
30
18
08
00
00
70
30
20
20
60
60
40
C0
F0
C0
ENDCHAR

STARTCHAR char237
ENCODING 237
SWIDTH 21 0
DWIDTH 5 0
BBX 7 15 1 0
BITMAP
0C
0C
08
00
00
70
30
20
20
60
60
40
C0
F0
C0
ENDCHAR

STARTCHAR char238
ENCODING 238
SWIDTH 21 0
DWIDTH 5 0
BBX 7 15 1 0
BITMAP
0C
1C
22
00
00
70
30
20
20
60
60
40
C0
F0
C0
ENDCHAR

STARTCHAR char239
ENCODING 239
SWIDTH 21 0
DWIDTH 5 0
BBX 7 14 1 0
BITMAP
66
66
00
00
70
30
20
20
60
40
40
C0
B0
C0
ENDCHAR

STARTCHAR char241
ENCODING 241
SWIDTH 43 0
DWIDTH 10 0
BBX 11 14 0 0
BITMAP
0720
0BC0
0000
0000
1980
3380
3480
3980
3180
3100
6300
6300
43C0
4300
ENDCHAR

STARTCHAR char242
ENCODING 242
SWIDTH 43 0
DWIDTH 10 0
BBX 8 15 1 0
BITMAP
0C
06
02
00
00
0E
32
63
43
C3
C3
C2
C6
CC
70
ENDCHAR

STARTCHAR char243
ENCODING 243
SWIDTH 43 0
DWIDTH 10 0
BBX 10 15 0 0
BITMAP
0180
0100
0100
0000
0000
0F00
3900
7180
6180
E180
C180
C100
C300
C600
7800
ENDCHAR

STARTCHAR char244
ENCODING 244
SWIDTH 43 0
DWIDTH 10 0
BBX 10 15 0 0
BITMAP
0180
0280
0480
0000
0000
0F00
3900
7180
6180
E180
C180
C100
C300
C600
7800
ENDCHAR

STARTCHAR char245
ENCODING 245
SWIDTH 43 0
DWIDTH 10 0
BBX 11 14 0 0
BITMAP
0FC0
1180
0000
0000
0F00
3900
7180
6180
E180
C180
C100
C300
C600
7800
ENDCHAR

STARTCHAR char246
ENCODING 246
SWIDTH 43 0
DWIDTH 10 0
BBX 9 14 1 0
BITMAP
1980
1980
0000
0000
1C00
2200
6300
4300
C300
C300
C200
C600
C400
7800
ENDCHAR

STARTCHAR char247
ENCODING 247
SWIDTH 3 0
DWIDTH 11 0
BBX 11 7 -1 2
BITMAP
0600
0600
0000
FFE0
0000
0600
0600
ENDCHAR

STARTCHAR char248
ENCODING 248
SWIDTH 43 0
DWIDTH 10 0
BBX 9 12 1 -1
BITMAP
0100
0F00
3300
6580
4580
C980
D380
D300
E300
C600
7800
8000
ENDCHAR

STARTCHAR char249
ENCODING 249
SWIDTH 43 0
DWIDTH 10 0
BBX 9 15 1 0
BITMAP
0600
0200
0200
0000
0000
3180
F180
B100
6100
6300
4300
CE00
CE00
D780
E600
ENDCHAR

STARTCHAR char250
ENCODING 250
SWIDTH 43 0
DWIDTH 10 0
BBX 9 15 1 0
BITMAP
0180
0300
0200
0000
0000
3180
F180
B100
6100
6300
4300
CE00
CE00
D780
E600
ENDCHAR

STARTCHAR char251
ENCODING 251
SWIDTH 43 0
DWIDTH 10 0
BBX 9 15 1 0
BITMAP
0300
0780
0880
0000
0000
3180
F180
B100
6100
6300
4300
CE00
CE00
D780
E600
ENDCHAR

STARTCHAR char252
ENCODING 252
SWIDTH 43 0
DWIDTH 10 0
BBX 9 14 1 0
BITMAP
1980
1980
0000
0000
3180
F180
B100
6100
6300
4200
CE00
CE00
D780
E600
ENDCHAR

STARTCHAR char255
ENCODING 255
SWIDTH 34 0
DWIDTH 8 0
BBX 11 17 -2 -3
BITMAP
0360
0360
0000
0000
3880
1840
0C40
0C40
0C80
0C80
0D00
0D00
0E00
0C00
0800
9000
E000
ENDCHAR
ENDFONT
